<?xml version="1.0" encoding="UTF-8"?><!DOCTYPE svg PUBLIC "-//W3C//DTD SVG 1.1//EN" "http://www.w3.org/Graphics/SVG/1.1/DTD/svg11.dtd"><svg xmlns="http://www.w3.org/2000/svg"><symbol id="icon-cross"><path d="M22.199 2.804L19.396 0 11.1 8.297 2.804 0 0 2.803 8.297 11.1 0 19.396l2.803 2.803 8.297-8.297 8.296 8.297 2.803-2.803-8.296-8.296z"/></symbol><symbol id="icon-facebook"><path d="M6.275 3.356h2.398V0H5.795C2.656.181 1.54 2.387 1.948 6.114H0v3.518h1.959v9.312h3.837V9.632h2.857V6.114H5.787c-.022-1.045-.037-2.405.488-2.758z"/></symbol><symbol id="icon-like"><path d="M12.383 3.646l-.637 2.929L11.219 9H19.9v2l.001.058L17 18H8V8.029l.014-.015 4.369-4.368M2 10v8-8M13.2 0L6.6 6.6c-.4.3-.6.8-.6 1.4v10c0 1.1.9 2 2 2h9c.8 0 1.5-.5 1.8-1.2l3-7.1c.1-.2.1-.5.1-.7V9h.1c0-1.1-.9-2-2-2h-6.3l1-4.6v-.3c0-.4-.2-.8-.4-1.1l-1.1-1zM4 8H0v12h4V8zm18 1v.044V9z"/></symbol><symbol id="icon-menu"><path d="M0 0h22.928v3.964H0zm0 9.009h22.928v3.964H0zm0 9.009h22.928v3.964H0z"/></symbol><symbol id="icon-star"><path d="M9.002 0l2.126 6.494h6.877l-5.564 4.012L14.566 17l-5.564-4.013L3.438 17l2.126-6.494L0 6.494h6.878z"/></symbol><symbol id="icon-twitter"><path fill-rule="evenodd" clip-rule="evenodd" d="M11.283.153c1.736-.484 3.074.264 3.685 1.15.694-.225 1.372-.47 2.072-.69-.004.841-.538 1.478-.883 1.728.704.165 1.343-.481 1.343-.481-.175.977-1.035 1.746-1.611 1.977-.239 6.592-3.272 10.956-10.382 10.823h-.46c-.422 0-4.29-.45-5.047-1.843 2.341.192 4.011-.412 4.835-1.15-.989-.293-2.761-.464-3.07-2.881.362.105.583.223 1.228.117C1.757 8.067.385 7.366.461 5.218c.294.319 1.1.523 1.381.461C1.117 5.444-.188 2.398.921.843 2.794 2.655 4.769 4.364 8.29 4.528c.216-2.24 1.171-3.74 2.993-4.375z"/></symbol><symbol id="icon-youtube"><path d="M17.145 0H2.835A2.842 2.842 0 0 0 0 2.835v8.345a2.842 2.842 0 0 0 2.835 2.835h14.31a2.842 2.842 0 0 0 2.835-2.835V2.835A2.844 2.844 0 0 0 17.145 0zM7.036 10.392V3.623l6.769 3.384-6.769 3.385z"/></symbol><symbol id="logo-htmlacademy" viewBox="0 0 108.08 36.85"><path d="M44.61 26.86a2 2 0 0 0 .55-.1v1.33a3.25 3.25 0 0 1-1.18.21 1.67 1.67 0 0 1-1.67-1 4.84 4.84 0 0 1-3.14 1.08c-1.51 0-2.91-.83-2.91-2.55 0-2.13 2-2.79 3.71-2.79a11.08 11.08 0 0 1 2.17.25v-.3c0-1-.76-1.77-2.19-1.77a7.42 7.42 0 0 0-3 .64v-1.7a10.21 10.21 0 0 1 3.19-.55c2.36 0 3.81 1.12 3.81 3.65v3a.54.54 0 0 0 .49.59h.17zm-6.44-1.13a1.35 1.35 0 0 0 1.46 1.25h.11a3.39 3.39 0 0 0 2.41-1v-1.42a9.72 9.72 0 0 0-1.81-.21c-1 0-2.16.33-2.16 1.38zm12.36-6.11a5 5 0 0 1 2.57.64v1.72a4.08 4.08 0 0 0-2.3-.7 2.75 2.75 0 1 0 0 5.49 5 5 0 0 0 2.43-.64v1.71a6.27 6.27 0 0 1-2.76.57A4.21 4.21 0 0 1 46 24.49v-.41a4.32 4.32 0 0 1 4.18-4.46h.38zm12.17 7.24a2 2 0 0 0 .55-.1v1.33a3.25 3.25 0 0 1-1.18.21 1.67 1.67 0 0 1-1.67-1 4.84 4.84 0 0 1-3.14 1.08c-1.51 0-2.91-.83-2.91-2.55 0-2.13 2-2.79 3.71-2.79a11.08 11.08 0 0 1 2.17.25v-.3c0-1-.76-1.77-2.19-1.77a7.42 7.42 0 0 0-3 .64v-1.7a10.21 10.21 0 0 1 3.19-.55c2.36 0 3.81 1.12 3.81 3.65v3a.54.54 0 0 0 .49.59h.17zm-6.44-1.13a1.35 1.35 0 0 0 1.47 1.25h.11a3.39 3.39 0 0 0 2.41-1v-1.42a9.72 9.72 0 0 0-1.81-.21c-1.06 0-2.16.33-2.16 1.38zM73 15.98v12.2h-1.65v-1.32a3.88 3.88 0 0 1-3.19 1.54 4.4 4.4 0 0 1 0-8.78 3.81 3.81 0 0 1 3 1.3v-4.94H73zm-4.53 5.22a2.76 2.76 0 1 0 0 5.52 2.86 2.86 0 0 0 2.68-1.74v-2a2.91 2.91 0 0 0-2.66-1.73zM79 19.62c3.31 0 4.46 2.68 3.92 5.09H76.7c.21 1.5 1.67 2.11 3.19 2.11a6.11 6.11 0 0 0 2.64-.59v1.6a7.14 7.14 0 0 1-3 .57c-2.53 0-4.75-1.42-4.75-4.42a4.18 4.18 0 0 1 4-4.39H79zm.09 1.54a2.28 2.28 0 0 0-2.44 2.1v.06h4.65a2 2 0 0 0-2.17-2.16zm5.73 7v-8.31h1.65v1a3.81 3.81 0 0 1 2.78-1.27 2.86 2.86 0 0 1 2.64 1.4 4.12 4.12 0 0 1 2.91-1.33 3.06 3.06 0 0 1 3.2 3.33v5.2h-1.9v-5.15a1.59 1.59 0 0 0-1.42-1.75h-.26a2.8 2.8 0 0 0-2.07 1.12v5.78h-1.9v-5.15A1.59 1.59 0 0 0 89 21.29h-.2a3 3 0 0 0-2.21 1.29v5.63h-1.73zm21.31-8.33h1.9l-3.91 9.46c-.9 2.17-2.09 2.86-3.35 2.86a4.76 4.76 0 0 1-1.1-.14v-1.57a2.86 2.86 0 0 0 .85.12c.9 0 1.58-.64 2.07-1.9l.17-.42-4-8.4h2l2.86 6.29zM38.73 1.44V6.2a3.81 3.81 0 0 1 2.7-1.14 3.25 3.25 0 0 1 3.44 3.4v5.15H43V8.7a1.81 1.81 0 0 0-1.61-2h-.3a2.93 2.93 0 0 0-2.32 1.39v5.52h-1.9V1.44h1.9zm11.21.85v3h3v1.6h-3v3.81c0 1.1.5 1.46 1.58 1.46a4.49 4.49 0 0 0 1.69-.33v1.6a6.8 6.8 0 0 1-2.21.35 2.55 2.55 0 0 1-2.86-2.74V6.87h-1.56V5.24h1.5V2.72zm5.4 11.31V5.26H57v1a3.81 3.81 0 0 1 2.77-1.28 2.86 2.86 0 0 1 2.6 1.33 4.12 4.12 0 0 1 2.91-1.33 3.06 3.06 0 0 1 3.16 3.4v5.21h-1.9V8.44a1.59 1.59 0 0 0-1.42-1.75h-.23a2.8 2.8 0 0 0-2.07 1.12v5.78h-1.9V8.44a1.59 1.59 0 0 0-1.42-1.75h-.23a3 3 0 0 0-2.21 1.29v5.63h-1.72zM71.17 1.43H73v12.15h-1.83V1.43zM14.71-.02h-.16L0 1.52v26.67l14.55 8.66 14.55-8.66V1.52zm12.5 27.1l-12.66 7.54L1.9 27.1V16.16l12.59 7.5v1.32l-8.63-5.1v1.31l8.68 5.21v1.39l-8.67-5.16v1.35l8.68 5.21 8.75-5.24v-5.66l3.9-2.31V27.1zm0-12.53l-3.48 2-1.6 1-7.62-4.57v1.31L21 18.21l-.14.09-1 .54-5.37-3.2v1.34l4.24 2.52-1 .67-3.2-1.9v1.31l2.1 1.24-2.13 1.26L2 14.63l12.51-7.54zm0-1.32L14.49 5.74 1.91 13.23v-10L14.56 1.9l12.65 1.33v10z"/></symbol></svg>